<svg width="100%" height="100%" xmlns="http://www.w3.org/2000/svg">
    <defs>
        <pattern id="music-pattern" width="160" height="160" patternUnits="userSpaceOnUse">
            <!-- Music note 1 -->
            <path d="M40 60 v-30 l3 -3 h6 l3 3 v30 l-3 3 h-6 l-3 -3z M37 60 a6 6 0 1 0 12 0" 
                  fill="none" stroke="rgba(255,255,255,0.2)" stroke-width="2"/>
            
            <!-- Music note 2 -->
            <path d="M100 100 v-30 l3 -3 h6 l3 3 v30 l-3 3 h-6 l-3 -3z M97 100 a6 6 0 1 0 12 0" 
                  fill="none" stroke="rgba(255,255,255,0.2)" stroke-width="2"/>
            
            <!-- Music note 3 -->
            <path d="M140 40 v-30 l3 -3 h6 l3 3 v30 l-3 3 h-6 l-3 -3z M137 40 a6 6 0 1 0 12 0" 
                  fill="none" stroke="rgba(255,255,255,0.2)" stroke-width="2"/>
            
            <!-- Eighth note -->
            <path d="M60 140 v-40 l20 5 v35 l-3 3 h-6 l-3 -3z M57 140 a6 6 0 1 0 12 0" 
                  fill="none" stroke="rgba(255,255,255,0.2)" stroke-width="2"/>
            
            <!-- Additional decorative elements -->
            <circle cx="20" cy="20" r="3" 
                    fill="none" stroke="rgba(255,255,255,0.15)" stroke-width="1"/>
            <circle cx="120" cy="140" r="3" 
                    fill="none" stroke="rgba(255,255,255,0.15)" stroke-width="1"/>
        </pattern>
    </defs>
    <rect width="100%" height="100%" fill="url(#music-pattern)"/>
</svg> 